<?xml version="1.0" standalone="no"?>
<!DOCTYPE svg PUBLIC "-//W3C//DTD SVG 20010904//EN"
 "http://www.w3.org/TR/2001/REC-SVG-20010904/DTD/svg10.dtd">
<svg version="1.0" xmlns="http://www.w3.org/2000/svg"
 width="224.000000pt" height="224.000000pt" viewBox="0 0 224.000000 224.000000"
 preserveAspectRatio="xMidYMid meet">
<metadata>
Created by potrace 1.11, written by Peter Selinger 2001-2013
</metadata>
<g transform="translate(0.000000,224.000000) scale(0.100000,-0.100000)"
fill="#000000" stroke="none">
<path d="M410 1781 l-45 -6 -27 -145 c-15 -80 -27 -146 -28 -146 0 -1 -12 -5
-27 -9 l-28 -7 25 -13 c42 -24 340 -18 340 6 0 4 -9 10 -19 14 -20 6 -21 25
-1 90 9 31 30 176 30 208 0 15 -10 17 -87 15 -49 0 -108 -4 -133 -7z"/>
<path d="M1920 1775 c0 -8 5 -15 10 -15 6 0 10 7 10 15 0 8 -4 15 -10 15 -5 0
-10 -7 -10 -15z"/>
<path d="M1490 1718 c0 -7 -3 -23 -6 -35 -5 -20 -2 -23 21 -23 23 0 26 3 21
23 -3 12 -6 28 -6 35 0 6 -7 12 -15 12 -8 0 -15 -6 -15 -12z"/>
<path d="M1906 1695 c-9 -25 -9 -25 25 -25 24 0 30 4 27 18 -4 23 -44 28 -52
7z"/>
<path d="M1055 1653 c-4 -21 -10 -50 -15 -65 l-9 -28 56 0 c52 0 55 1 50 23
-4 12 -9 41 -13 65 -6 38 -9 42 -35 42 -25 0 -29 -4 -34 -37z"/>
<path d="M1880 1600 c0 -17 -7 -20 -52 -20 -44 -1 -50 -3 -34 -12 12 -7 46 -8
91 -5 91 8 104 13 98 38 -4 15 -14 19 -54 19 -42 0 -49 -3 -49 -20z"/>
<path d="M660 1583 c0 -17 -9 -42 -20 -56 -27 -34 -25 -40 9 -23 42 22 56 71
26 96 -13 11 -15 8 -15 -17z"/>
<path d="M1456 1564 c-3 -8 -4 -20 0 -25 3 -5 0 -9 -5 -9 -6 0 -11 -4 -11 -10
0 -10 112 -14 122 -4 3 3 3 17 -1 32 -7 24 -13 27 -53 30 -35 2 -47 -1 -52
-14z"/>
<path d="M732 1535 c4 -5 3 -14 -3 -22 -9 -10 -7 -13 11 -13 25 0 25 30 0 38
-8 3 -12 1 -8 -3z"/>
<path d="M1420 1408 c0 -34 -11 -44 -55 -51 -22 -4 -58 -11 -80 -15 l-40 -9
47 -7 c44 -8 85 -6 248 9 30 2 75 9 100 14 l45 9 -42 1 c-40 1 -42 3 -49 36
l-6 35 -84 0 c-80 0 -84 -1 -84 -22z"/>
<path d="M984 1349 c-6 -33 -8 -62 -5 -63 3 -2 55 -4 115 -5 l108 -2 -6 33
c-11 56 -13 73 -15 86 -1 9 -27 12 -94 12 l-93 0 -10 -61z"/>
<path d="M1751 1311 c-8 -5 -24 -49 -36 -97 -28 -109 -23 -117 62 -117 80 0
106 15 98 56 -11 54 -38 141 -48 155 -11 14 -55 16 -76 3z"/>
<path d="M461 1184 c-118 -41 -221 -79 -228 -86 -30 -24 -41 -67 -52 -193 -7
-71 -16 -168 -22 -215 -14 -128 -13 -139 14 -145 23 -6 65 8 179 59 l57 25
-16 31 c-64 129 128 363 274 334 l28 -6 23 122 c25 130 22 151 -22 149 -11 0
-117 -34 -235 -75z"/>
<path d="M922 1072 l-12 -59 -47 -7 c-25 -3 -62 -6 -82 -6 -34 -1 -35 -1 -16
-16 19 -14 19 -15 -3 -20 -61 -16 38 -29 213 -28 84 0 337 31 425 51 l25 6
-25 7 c-14 5 -50 8 -81 9 l-56 1 -9 58 -9 57 -155 3 -156 2 -12 -58z"/>
<path d="M1885 979 c-38 -24 -152 -26 -196 -4 -23 12 -30 13 -33 3 -23 -70
-27 -89 -21 -98 28 -45 204 -61 265 -24 34 20 35 23 33 74 -2 30 -6 57 -10 61
-5 3 -21 -2 -38 -12z"/>
<path d="M670 879 c-36 -15 -109 -72 -110 -86 0 -7 -4 -13 -9 -13 -12 0 -51
-93 -51 -122 0 -13 7 -34 16 -46 14 -21 11 -28 -11 -22 -35 10 -105 15 -105 8
0 -4 -6 -8 -13 -8 -20 0 -49 -36 -45 -56 5 -29 101 -55 208 -56 52 0 109 4
125 9 l30 10 -42 26 c-39 25 -43 31 -43 67 0 21 5 42 10 45 6 3 10 13 10 22 0
42 107 133 157 133 l24 0 -30 44 c-40 57 -65 67 -121 45z"/>
<path d="M1978 767 c-14 -33 -106 -67 -184 -67 -72 0 -154 21 -174 45 -9 11
-14 11 -29 -4 -10 -10 -49 -28 -87 -41 -49 -15 -78 -32 -100 -56 -31 -34 -50
-84 -33 -84 5 0 9 -6 9 -14 0 -21 90 -41 255 -57 50 -4 113 -11 140 -15 46 -6
59 -2 150 41 198 94 250 122 250 135 0 8 -22 23 -50 33 -109 42 -133 56 -137
79 -3 20 -4 21 -10 5z"/>
<path d="M829 653 c-35 -22 -79 -90 -79 -124 0 -29 23 -55 40 -44 5 3 10 2 10
-3 0 -11 135 -72 160 -72 24 0 60 42 60 71 0 13 -20 51 -45 84 -24 33 -51 70
-60 83 -19 26 -50 28 -86 5z"/>
</g>
</svg>
